<?xml version="1.0" encoding="UTF-8" standalone="no"?>
<svg
   width="86"
   height="128"
   viewBox="0 0 86 128"
   fill="none"
   version="1.1"
   id="svg2"
   sodipodi:docname="bluetooth.svg"
   inkscape:version="1.3.2 (091e20ef0f, 2023-11-25, custom)"
   xmlns:inkscape="http://www.inkscape.org/namespaces/inkscape"
   xmlns:sodipodi="http://sodipodi.sourceforge.net/DTD/sodipodi-0.dtd"
   xmlns="http://www.w3.org/2000/svg"
   xmlns:svg="http://www.w3.org/2000/svg">
  <sodipodi:namedview
     id="namedview2"
     pagecolor="#505050"
     bordercolor="#eeeeee"
     borderopacity="1"
     inkscape:showpageshadow="0"
     inkscape:pageopacity="0"
     inkscape:pagecheckerboard="0"
     inkscape:deskcolor="#d1d1d1"
     showgrid="false"
     inkscape:zoom="4.6459125"
     inkscape:cx="16.143223"
     inkscape:cy="69.6311"
     inkscape:window-width="1920"
     inkscape:window-height="1054"
     inkscape:window-x="1920"
     inkscape:window-y="0"
     inkscape:window-maximized="1"
     inkscape:current-layer="svg2" />
  <path
     d="m 5.0271743,84.65116 c 1.9352006,2.907508 5.8992367,3.770601 8.9017507,1.78011 L 29.625873,75.965782 v 39.358778 c 0,4.2992 5.228721,8.47688 9.979848,5.34085 L 78.121428,94.988262 c 1.786788,-1.190905 2.858725,-3.197146 2.858725,-5.340845 0,-2.143527 -1.071937,-4.149939 -2.858725,-5.340844 L 47.617502,63.97028 78.121428,43.633985 c 1.786788,-1.191076 2.858725,-3.197146 2.858725,-5.340845 0,-2.143527 -1.071937,-4.149939 -2.858725,-5.340844 L 39.605721,7.2751573 C 35.428906,4.4905577 29.625873,7.6842806 29.625873,12.616003 V 51.974775 L 13.928582,41.508774 C 10.963386,39.546699 6.9829163,40.330193 5.0266606,43.289056 3.0580804,46.235422 3.854585,50.222397 6.8071135,52.190978 L 24.472814,63.97028 6.8074563,75.749238 C 3.854585,77.71782 3.0585941,81.704622 5.0271743,84.65116 Z M 42.464443,24.610649 62.988693,38.29314 42.464443,51.975632 Z m 0,51.354277 20.52425,13.682491 -20.52425,13.682493 z"
     fill="url(#paint0_linear)"
     id="path1"
     sodipodi:nodetypes="cccsccscccsccsccccccccccccccc"
     style="fill:url(#paint0_linear);stroke-width:0.999995" />
  <defs
     id="defs2">
    <linearGradient
       id="paint0_linear"
       x1="86.5"
       y1="97.87896"
       x2="41.498577"
       y2="30.395769"
       gradientUnits="userSpaceOnUse"
       gradientTransform="matrix(1.7118092,0,0,1.7118092,-67.091348,-45.790929)">
      <stop
         stop-color="#FD5900"
         id="stop1"
         offset="0"
         style="stop-color:#2944ff;stop-opacity:1;" />
      <stop
         offset="1"
         stop-color="#FFDE00"
         id="stop2"
         style="stop-color:#4feeff;stop-opacity:1;" />
    </linearGradient>
  </defs>
</svg>
