<?xml version="1.0" encoding="UTF-8" standalone="no"?>
<svg
   width="78"
   height="128"
   viewBox="0 0 78 128"
   fill="none"
   version="1.1"
   id="svg2"
   sodipodi:docname="bluetooth.svg"
   inkscape:version="1.4 (e7c3feb100, 2024-10-09)"
   inkscape:export-filename="bluetooth.png"
   inkscape:export-xdpi="288"
   inkscape:export-ydpi="288"
   xmlns:inkscape="http://www.inkscape.org/namespaces/inkscape"
   xmlns:sodipodi="http://sodipodi.sourceforge.net/DTD/sodipodi-0.dtd"
   xmlns="http://www.w3.org/2000/svg"
   xmlns:svg="http://www.w3.org/2000/svg">
  <sodipodi:namedview
     id="namedview2"
     pagecolor="#505050"
     bordercolor="#eeeeee"
     borderopacity="1"
     inkscape:showpageshadow="0"
     inkscape:pageopacity="0"
     inkscape:pagecheckerboard="0"
     inkscape:deskcolor="#d1d1d1"
     showgrid="false"
     inkscape:zoom="4"
     inkscape:cx="8.125"
     inkscape:cy="55.75"
     inkscape:window-width="1920"
     inkscape:window-height="1054"
     inkscape:window-x="1920"
     inkscape:window-y="0"
     inkscape:window-maximized="1"
     inkscape:current-layer="svg2" />
  <path
     d="m 1.0808781,84.65116 c 1.9352006,2.907508 5.8992367,3.770601 8.9017507,1.78011 L 25.679577,75.965782 v 39.358778 c 0,4.2992 5.228721,8.47688 9.979848,5.34085 L 74.175132,94.988262 c 1.786788,-1.190905 2.858725,-3.197146 2.858725,-5.340845 0,-2.143527 -1.071937,-4.149939 -2.858725,-5.340844 L 43.671206,63.97028 74.175132,43.633985 c 1.786788,-1.191076 2.858725,-3.197146 2.858725,-5.340845 0,-2.143527 -1.071937,-4.149939 -2.858725,-5.340844 L 35.659425,7.2751573 C 31.48261,4.4905577 25.679577,7.6842806 25.679577,12.616003 V 51.974775 L 9.9822858,41.508774 c -2.965196,-1.962075 -6.9456657,-1.178581 -8.9019214,1.780282 -1.96858022,2.946366 -1.17207562,6.933341 1.7804529,8.901922 L 20.526518,63.97028 2.8611601,75.749238 c -2.95287132,1.968582 -3.74886222,5.955384 -1.780282,8.901922 z M 38.518147,24.610649 59.042397,38.29314 38.518147,51.975632 Z m 0,51.354277 20.52425,13.682491 -20.52425,13.682493 z"
     fill="url(#paint0_linear)"
     id="path1"
     sodipodi:nodetypes="cccsccscccsccsccccccccccccccc"
     style="fill:url(#paint0_linear);stroke-width:0.999995" />
  <defs
     id="defs2">
    <linearGradient
       id="paint0_linear"
       x1="75.26265"
       y1="88.876854"
       x2="45.540119"
       y2="37.395924"
       gradientUnits="userSpaceOnUse"
       gradientTransform="matrix(1.7118092,0,0,1.7118092,-71.037644,-45.790929)">
      <stop
         stop-color="#FD5900"
         id="stop1"
         offset="0"
         style="stop-color:#2950ff;stop-opacity:1;" />
      <stop
         offset="1"
         stop-color="#FFDE00"
         id="stop2"
         style="stop-color:#4fe5ff;stop-opacity:1;" />
    </linearGradient>
  </defs>
</svg>
