<?xml version="1.0" encoding="UTF-8" standalone="no"?>
<svg
   id="Capa_1"
   enable-background="new 0 0 512 512"
   height="512"
   viewBox="0 0 512 512"
   width="512"
   version="1.1"
   sodipodi:docname="clock.svg"
   inkscape:version="1.4 (e7c3feb100, 2024-10-09)"
   inkscape:export-filename="clock.png"
   inkscape:export-xdpi="72"
   inkscape:export-ydpi="72"
   xmlns:inkscape="http://www.inkscape.org/namespaces/inkscape"
   xmlns:sodipodi="http://sodipodi.sourceforge.net/DTD/sodipodi-0.dtd"
   xmlns="http://www.w3.org/2000/svg"
   xmlns:svg="http://www.w3.org/2000/svg">
  <defs
     id="defs3" />
  <sodipodi:namedview
     id="namedview3"
     pagecolor="#505050"
     bordercolor="#eeeeee"
     borderopacity="1"
     inkscape:showpageshadow="0"
     inkscape:pageopacity="0"
     inkscape:pagecheckerboard="0"
     inkscape:deskcolor="#d1d1d1"
     inkscape:zoom="0.984375"
     inkscape:cx="198.60317"
     inkscape:cy="245.84127"
     inkscape:window-width="1920"
     inkscape:window-height="1054"
     inkscape:window-x="1920"
     inkscape:window-y="0"
     inkscape:window-maximized="1"
     inkscape:current-layer="g1"
     showgrid="false" />
  <linearGradient
     id="SVGID_1_"
     gradientUnits="userSpaceOnUse"
     x1="394.32825"
     x2="117.63387"
     y1="394.32825"
     y2="117.63387">
    <stop
       offset="0"
       stop-color="#ffa68d"
       id="stop2"
       style="stop-color:#2950ff;stop-opacity:1;" />
    <stop
       offset="1"
       stop-color="#fd3a84"
       id="stop1"
       style="stop-color:#4fe5ff;stop-opacity:1;" />
  </linearGradient>
  <g
     id="g3">
    <g
       id="g2"
       transform="matrix(1.3061224,0,0,1.3061224,-78.367345,-78.367345)"
       style="stroke-width:0.765625">
      <g
         id="g1">
        <path
           d="M 256,60 C 148.347,60 60,148.367 60,256 60,363.458 148.374,452 256,452 363.458,452 452,363.626 452,256 452,148.347 363.632,60 256,60 Z m 127.449,302.236 c -4.84497,4.84448 -14.40224,14.40224 -21.213,21.213 -25.2,21.042 -56.711,34.758 -91.237,37.866 h -30 c -34.526,-3.107 -66.036,-16.824 -91.237,-37.866 -6.77952,-6.77952 -12.79509,-12.79594 -21.213,-21.213 C 107.509,337.036 93.792,305.525 90.685,271 v -30 c 3.107,-34.525 16.824,-66.036 37.865,-91.237 L 149.763,128.55 C 174.964,107.509 206.474,93.792 241,90.685 h 30 c 34.526,3.107 66.036,16.824 91.237,37.865 l 21.213,21.213 c 15.70976,18.81572 27.33675,41.1484 33.51332,65.62746 2.09607,8.30718 3.56445,16.86155 4.35168,25.60954 v 29.99 c -3.107,34.525 -16.824,66.046 -37.866,91.246 z M 347,241 h -76 v -97.45 c 0,-8.284 -6.716,-15 -15,-15 -8.284,0 -15,6.716 -15,15 V 256 c 0,8.284 6.716,15 15,15 h 91 c 8.284,0 15,-6.716 15,-15 0,-8.284 -6.716,-15 -15,-15 z"
           fill="url(#SVGID_1_)"
           id="path2"
           sodipodi:nodetypes="sssssccccccccccccccscccscssssssss"
           style="mix-blend-mode:normal;fill:url(#SVGID_1_);fill-opacity:1;stroke-width:0.765625" />
      </g>
    </g>
  </g>
</svg>
