<?xml version="1.0" encoding="UTF-8" standalone="no"?>
<svg
   width="128"
   height="128"
   viewBox="0 0 128 128"
   fill="none"
   version="1.1"
   id="svg2"
   sodipodi:docname="cpu.svg"
   inkscape:version="1.3.2 (091e20ef0f, 2023-11-25, custom)"
   xmlns:inkscape="http://www.inkscape.org/namespaces/inkscape"
   xmlns:sodipodi="http://sodipodi.sourceforge.net/DTD/sodipodi-0.dtd"
   xmlns="http://www.w3.org/2000/svg"
   xmlns:svg="http://www.w3.org/2000/svg">
  <sodipodi:namedview
     id="namedview2"
     pagecolor="#505050"
     bordercolor="#eeeeee"
     borderopacity="1"
     inkscape:showpageshadow="0"
     inkscape:pageopacity="0"
     inkscape:pagecheckerboard="0"
     inkscape:deskcolor="#d1d1d1"
     showgrid="false"
     inkscape:zoom="4.6459125"
     inkscape:cx="47.783939"
     inkscape:cy="68.1244"
     inkscape:window-width="1920"
     inkscape:window-height="1054"
     inkscape:window-x="1920"
     inkscape:window-y="0"
     inkscape:window-maximized="1"
     inkscape:current-layer="svg2" />
  <path
     d="m 45.25,49 v 30 c 0,2.071 1.679,3.75 3.75,3.75 h 30 c 2.071,0 3.75,-1.679 3.75,-3.75 V 49 c 0,-2.071 -1.679,-3.75 -3.75,-3.75 H 49 c -2.071,0 -3.75,1.679 -3.75,3.75 z m 30,3.75 v 22.5 h -22.5 v -22.5 z m -7.5,56.5 v 15 c 0,2.071 1.679,3.75 3.75,3.75 h 15 c 2.071,0 3.75,-1.679 3.75,-3.75 v -15 c 0,-2.071 -1.679,-3.75 -3.75,-3.75 H 86.239107 82.75 V 97.75 H 94 c 2.071,0 3.75,-1.679 3.75,-3.75 V 82.75 h 7.75 v 3.75 c 0,2.071 1.679,3.75 3.75,3.75 h 15 c 2.071,0 3.75,-1.679 3.75,-3.75 v -15 c 0,-2.071 -1.679,-3.75 -3.75,-3.75 h -15 c -2.071,0 -3.75,1.679 -3.75,3.75 v 3.75 h -7.75 v -22.5 h 7.75 v 3.75 c 0,2.071 1.679,3.75 3.75,3.75 h 15 c 2.071,0 3.75,-1.679 3.75,-3.75 v -15 c 0,-2.071 -1.679,-3.75 -3.75,-3.75 h -15 c -2.071,0 -3.75,1.679 -3.75,3.75 v 3.75 H 97.75 V 34 c 0,-2.071 -1.679,-3.75 -3.75,-3.75 H 82.75 V 22.5 h 3.75 c 2.071,0 3.75,-1.679 3.75,-3.75 v -15 C 90.25,1.679 88.571,0 86.5,0 h -15 c -2.071,0 -3.75,1.679 -3.75,3.75 v 15 c 0,2.071 1.679,3.75 3.75,3.75 h 3.75 v 7.75 H 52.75 V 22.5 h 3.75 c 2.071,0 3.75,-1.679 3.75,-3.75 v -15 C 60.25,1.679 58.571,0 56.5,0 h -15 c -2.071,0 -3.75,1.679 -3.75,3.75 v 15 c 0,2.071 1.679,3.75 3.75,3.75 h 3.75 v 7.75 H 34 c -2.071,0 -3.75,1.679 -3.75,3.75 V 45.25 H 22.5 V 41.5 c 0,-2.071 -1.679,-3.75 -3.75,-3.75 h -15 C 1.679,37.75 0,39.429 0,41.5 v 15 c 0,2.071 1.679,3.75 3.75,3.75 h 15 c 2.071,0 3.75,-1.679 3.75,-3.75 v -3.75 h 7.75 v 22.5 H 22.5 V 71.5 c 0,-2.071 -1.679,-3.75 -3.75,-3.75 h -15 C 1.679,67.75 0,69.429 0,71.5 v 15 c 0,2.071 1.679,3.75 3.75,3.75 h 15 c 2.071,0 3.75,-1.679 3.75,-3.75 v -3.75 h 7.75 V 94 c 0,2.071 1.679,3.75 3.75,3.75 h 11.25 v 7.75 H 41.5 c -2.071,0 -3.75,1.679 -3.75,3.75 v 15 c 0,2.071 1.679,3.75 3.75,3.75 h 15 c 2.071,0 3.75,-1.679 3.75,-3.75 v -15 c 0,-2.071 -1.679,-3.75 -3.75,-3.75 h -3.75 v -7.75 h 22.5 v 7.75 H 71.5 c -2.071,0 -3.75,1.679 -3.75,3.75 z m 15,3.75 v 7.5 h -7.5 V 113 Z M 75.25,15 V 7.5 h 7.5 V 15 Z m -30,0 V 7.5 h 7.5 V 15 Z m 75.25,60.25 v 7.5 H 113 v -7.5 z m 0,-30 v 7.5 H 113 v -7.5 z m -113,7.5 v -7.5 H 15 v 7.5 z m 0,30 v -7.5 H 15 v 7.5 z m 30.25,7.5 v -52.5 h 52.5 v 52.5 z m 15,22.75 v 7.5 h -7.5 V 113 Z"
     fill="url(#paint0_linear)"
     id="path1"
     style="fill:url(#paint0_linear);fill-rule:nonzero;stroke-width:1.00157;stroke-dasharray:none"
     sodipodi:nodetypes="ssssssssscccccssssssscccssccssssssssccccssssssssccssccssssssssccccssssssssccssccssssssssccccssssssssccssccssssssssccccssccccccccccccccccccccccccccccccccccccccccccccc" />
  <defs
     id="defs2">
    <linearGradient
       id="paint0_linear"
       x1="23.2"
       y1="112.889"
       x2="138.625"
       y2="12.178"
       gradientUnits="userSpaceOnUse"
       gradientTransform="rotate(90,64,64)">
      <stop
         stop-color="#FE0844"
         id="stop1"
         offset="0"
         style="stop-color:#ff592c;stop-opacity:1;" />
      <stop
         offset="1"
         stop-color="#FEB302"
         id="stop2"
         style="stop-color:#ff329c;stop-opacity:1;" />
    </linearGradient>
  </defs>
</svg>
