<?xml version="1.0" encoding="UTF-8" standalone="no"?>
<svg
   id="Capa_1"
   enable-background="new 0 0 512 512"
   height="512"
   viewBox="0 0 512 512"
   width="512"
   version="1.1"
   sodipodi:docname="memory.svg"
   inkscape:version="1.3.2 (091e20ef0f, 2023-11-25, custom)"
   inkscape:export-filename="memory.png"
   inkscape:export-xdpi="72"
   inkscape:export-ydpi="72"
   xmlns:inkscape="http://www.inkscape.org/namespaces/inkscape"
   xmlns:sodipodi="http://sodipodi.sourceforge.net/DTD/sodipodi-0.dtd"
   xmlns:xlink="http://www.w3.org/1999/xlink"
   xmlns="http://www.w3.org/2000/svg"
   xmlns:svg="http://www.w3.org/2000/svg">
  <defs
     id="defs7">
    <linearGradient
       id="linearGradient21">
      <stop
         offset="0"
         stop-color="#a93aff"
         id="stop20"
         style="stop-color:#af47ff;stop-opacity:1;" />
      <stop
         offset="1"
         stop-color="#ff81ff"
         id="stop21"
         style="stop-color:#ff72ff;stop-opacity:1;" />
    </linearGradient>
    <linearGradient
       id="linearGradient14">
      <stop
         offset="0"
         stop-color="#a93aff"
         id="stop3"
         style="stop-color:#a632ff;stop-opacity:1;" />
      <stop
         offset="1"
         stop-color="#ff81ff"
         id="stop8"
         style="stop-color:#ff72ff;stop-opacity:1;" />
    </linearGradient>
    <linearGradient
       id="linearGradient19">
      <stop
         offset="0"
         stop-color="#a93aff"
         id="stop18"
         style="stop-color:#bb63ff;stop-opacity:1;" />
      <stop
         offset="1"
         stop-color="#ff81ff"
         id="stop19"
         style="stop-color:#ff92ff;stop-opacity:1;" />
    </linearGradient>
    <linearGradient
       id="linearGradient17">
      <stop
         offset="0"
         stop-color="#a93aff"
         id="stop16"
         style="stop-color:#bb63ff;stop-opacity:1;" />
      <stop
         offset="1"
         stop-color="#ff81ff"
         id="stop17" />
    </linearGradient>
    <linearGradient
       id="linearGradient15">
      <stop
         offset="0"
         stop-color="#a93aff"
         id="stop14"
         style="stop-color:#af48ff;stop-opacity:1;" />
      <stop
         offset="1"
         stop-color="#ff81ff"
         id="stop15" />
    </linearGradient>
    <linearGradient
       id="linearGradient13">
      <stop
         offset="0"
         stop-color="#a93aff"
         id="stop12"
         style="stop-color:#b049ff;stop-opacity:1;" />
      <stop
         offset="1"
         stop-color="#ff81ff"
         id="stop13" />
    </linearGradient>
    <linearGradient
       id="linearGradient12">
      <stop
         offset="0"
         stop-color="#a93aff"
         id="stop6"
         style="stop-color:#bf6dff;stop-opacity:1;" />
      <stop
         offset="1"
         stop-color="#ff81ff"
         id="stop7"
         style="stop-color:#ffb2ff;stop-opacity:1;" />
    </linearGradient>
    <linearGradient
       id="linearGradient5">
      <stop
         offset="0"
         stop-color="#a93aff"
         id="stop4"
         style="stop-color:#bd6bff;stop-opacity:1;" />
      <stop
         offset="1"
         stop-color="#ff81ff"
         id="stop5"
         style="stop-color:#ffb3ff;stop-opacity:1;" />
    </linearGradient>
    <linearGradient
       inkscape:collect="always"
       xlink:href="#linearGradient21"
       id="linearGradient7"
       gradientUnits="userSpaceOnUse"
       x1="512"
       y1="512"
       x2="0"
       y2="0" />
    <linearGradient
       inkscape:collect="always"
       xlink:href="#linearGradient21"
       id="linearGradient8"
       gradientUnits="userSpaceOnUse"
       x1="512"
       y1="512"
       x2="0"
       y2="0" />
    <linearGradient
       inkscape:collect="always"
       xlink:href="#linearGradient21"
       id="linearGradient9"
       gradientUnits="userSpaceOnUse"
       x1="512"
       y1="512"
       x2="0"
       y2="0" />
    <linearGradient
       inkscape:collect="always"
       xlink:href="#linearGradient21"
       id="linearGradient10"
       gradientUnits="userSpaceOnUse"
       x1="512"
       y1="512"
       x2="0"
       y2="0" />
    <linearGradient
       inkscape:collect="always"
       xlink:href="#linearGradient21"
       id="linearGradient11"
       gradientUnits="userSpaceOnUse"
       x1="512"
       y1="512"
       x2="0"
       y2="0" />
  </defs>
  <sodipodi:namedview
     id="namedview7"
     pagecolor="#505050"
     bordercolor="#eeeeee"
     borderopacity="1"
     inkscape:showpageshadow="0"
     inkscape:pageopacity="0"
     inkscape:pagecheckerboard="0"
     inkscape:deskcolor="#d1d1d1"
     showgrid="false"
     inkscape:zoom="1.1614781"
     inkscape:cx="278.95489"
     inkscape:cy="227.72707"
     inkscape:window-width="1920"
     inkscape:window-height="1054"
     inkscape:window-x="1920"
     inkscape:window-y="0"
     inkscape:window-maximized="1"
     inkscape:current-layer="g7" />
  <linearGradient
     id="lg1">
    <stop
       offset="0"
       stop-color="#a93aff"
       id="stop1" />
    <stop
       offset="1"
       stop-color="#ff81ff"
       id="stop2" />
  </linearGradient>
  <linearGradient
     id="SVGID_1_"
     gradientUnits="userSpaceOnUse"
     x1="60"
     x2="60"
     xlink:href="#linearGradient14"
     y1="503.28699"
     y2="-1.576" />
  <linearGradient
     id="SVGID_4_"
     gradientUnits="userSpaceOnUse"
     x1="512"
     x2="0"
     xlink:href="#linearGradient21"
     y1="512"
     y2="0" />
  <g
     id="g7"
     style="stroke-width:1">
    <g
       fill="url(#SVGID_1_)"
       id="g4"
       style="fill:url(#SVGID_1_);stroke-width:1">
      <path
         d="m 15,136 h 90 c 8.284,0 15,-6.716 15,-15 V 31 c 0,-8.284 -6.716,-15 -15,-15 H 15 C 6.716,16 0,22.716 0,31 v 90 c 0,8.284 6.716,15 15,15 z M 30,46 h 60 v 60 H 30 Z"
         id="path2"
         style="fill:url(#linearGradient7);stroke-width:1" />
      <path
         d="m 15,316 h 90 c 8.284,0 15,-6.716 15,-15 v -90 c 0,-8.284 -6.716,-15 -15,-15 H 15 c -8.284,0 -15,6.716 -15,15 v 90 c 0,8.284 6.716,15 15,15 z m 15,-90 h 60 v 60 H 30 Z"
         id="path3"
         style="fill:url(#linearGradient8);stroke-width:1" />
      <path
         d="m 15,496 h 90 c 8.284,0 15,-6.716 15,-15 v -90 c 0,-8.284 -6.716,-15 -15,-15 H 15 c -8.284,0 -15,6.716 -15,15 v 90 c 0,8.284 6.716,15 15,15 z m 15,-90 h 60 v 60 H 30 Z"
         id="path4"
         style="fill:url(#linearGradient9);stroke-width:1" />
    </g>
    <path
       d="M 497,16 H 165 c -8.284,0 -15,6.716 -15,15 v 90 c 0,8.284 6.716,15 15,15 h 332 c 8.284,0 15,-6.716 15,-15 V 31 c 0,-8.284 -6.716,-15 -15,-15 z m -15,90 H 180 V 46 h 302 z"
       fill="url(#SVGID_4_)"
       id="path5"
       style="fill:url(#linearGradient10);stroke-width:1" />
    <path
       d="M 497,196 H 165 c -8.284,0 -15,6.716 -15,15 v 90 c 0,8.284 6.716,15 15,15 h 332 c 8.284,0 15,-6.716 15,-15 v -90 c 0,-8.284 -6.716,-15 -15,-15 z m -15,90 H 180 v -60 h 302 z"
       fill="url(#SVGID_4_)"
       id="path6"
       style="fill:url(#linearGradient11);stroke-width:1" />
    <path
       d="M 497,376 H 165 c -8.284,0 -15,6.716 -15,15 v 90 c 0,8.284 6.716,15 15,15 h 332 c 8.284,0 15,-6.716 15,-15 v -90 c 0,-8.284 -6.716,-15 -15,-15 z m -15,90 H 180 v -60 h 302 z"
       fill="url(#SVGID_4_)"
       id="path7"
       style="fill:url(#SVGID_4_);stroke-width:1" />
  </g>
</svg>
