<?xml version="1.0" encoding="UTF-8" standalone="no"?>
<svg
   width="163"
   height="183"
   viewBox="0 0 163 183"
   fill="none"
   version="1.1"
   id="svg4"
   sodipodi:docname="volume.svg"
   inkscape:version="1.4 (e7c3feb100, 2024-10-09)"
   xmlns:inkscape="http://www.inkscape.org/namespaces/inkscape"
   xmlns:sodipodi="http://sodipodi.sourceforge.net/DTD/sodipodi-0.dtd"
   xmlns="http://www.w3.org/2000/svg"
   xmlns:svg="http://www.w3.org/2000/svg">
  <sodipodi:namedview
     id="namedview4"
     pagecolor="#505050"
     bordercolor="#eeeeee"
     borderopacity="1"
     inkscape:showpageshadow="0"
     inkscape:pageopacity="0"
     inkscape:pagecheckerboard="0"
     inkscape:deskcolor="#d1d1d1"
     inkscape:zoom="3.0788607"
     inkscape:cx="50.505695"
     inkscape:cy="89.318753"
     inkscape:window-width="1920"
     inkscape:window-height="1054"
     inkscape:window-x="1920"
     inkscape:window-y="0"
     inkscape:window-maximized="1"
     inkscape:current-layer="svg4" />
  <path
     d="m 146.21888,1.1811521 -0.007,0.00128 -0.007,0.00138 c -11.179,2.18784 -22.368,4.34239 -33.561,6.4974899 -18.075997,3.4805 -36.158797,6.9624 -54.212797,10.5881 -2.8864,0.1734 -5.1755,1.8382 -6.6787,4.0083 -1.5038,2.1709 -2.2838,4.9265 -2.1292,7.4666 0.0191,11.9911 0.016,23.9849 0.0129,35.9797 -0.0047,18.4209 -0.0094,36.843998 0.0661,55.264998 -7.5765,-4.224 -16.8534,-5.238 -25.178,-2.761 -12.5075,3.566 -22.2026003,15.11 -23.3205003,28.05 -1.32160004,11.288 3.9053,22.95 13.1076003,29.646 8.299,6.185 19.6435,8.126 29.5223,4.843 9.9683,-3.072 17.9897,-11.24 21.2097,-21.052 1.462,-3.383 1.767,-6.908 1.731,-10.368 -0.0165,-1.586 -0.1054,-3.179 -0.1925,-4.741 -0.0083,-0.149 -0.0165,-0.296 -0.0247,-0.444 -0.0949,-1.714 -0.1795,-3.391 -0.1644,-5.038 v -0.009 c 0.0047,-8.184 0.0041,-16.366 0.0035,-24.548 -9e-4,-13.367 -0.0019,-26.730398 0.0199,-40.090598 4.6567,-0.9949 9.366,-1.7258 14.1096,-2.462 l 0.0449,-0.0069 c 5.0143,-0.7783 10.0673,-1.5634 15.0713,-2.6716 l 0.004,-7e-4 c 3.266,-0.7347 6.575997,-1.2505 9.922997,-1.7721 0.392,-0.0611 0.784,-0.1223 1.177,-0.1839 3.735,-0.5855 7.506,-1.2097 11.218,-2.1826 l 0.021,-0.0054 0.02,-0.0063 c 1.995,-0.6154 3.827,-1.9836 5.006,-3.7343 1.185,-1.7601 1.75,-3.9735 1.056,-6.2196 l -0.027,-0.0869 -0.042,-0.0806 c -0.899,-1.7227 -2.302,-3.425 -4.04,-4.5562 -1.74,-1.1328 -3.867,-1.7188 -6.129,-1.0797 -1.373,0.2727 -2.741,0.5525 -4.105,0.8317 -5.615,1.1484 -11.178997,2.2865 -16.836997,2.8835 l -0.028,0.0029 -0.028,0.0045 c -3.694,0.6 -7.368,1.318 -11.0234,2.0322 -0.9322,0.1822 -1.8631,0.3641 -2.7928,0.5437 -4.2099,0.8134 -8.4037,1.5825 -12.6258,2.1323 0.0265,-3.9311 0.0223,-7.8592 0.0182,-11.7827 l -5e-4,-0.4642 c -0.0043,-4.1859 -0.0073,-8.3667 0.0281,-12.5489 2.0724,-0.3913 4.1451,-0.7824 6.218,-1.1735 24.1442,-4.5553 48.317197,-9.116 72.393197,-14.1258 0.091,15.6819 0.077,31.3384 0.064,46.9972 -0.012,13.5226 -0.023,27.0469 0.033,40.590498 -9.137,-4.215 -20.498,-3.411 -28.673,2.664 -9.435,6.6 -13.888,19.235 -10.699,30.247 2.647,10.051 11.348,18.193 21.604,20.173 9.132,1.923 19.061,-1.108 25.588,-7.723 6.621,-6.538 9.222,-16.188 8.548,-25.146 -0.047,-21.46 -0.035,-42.918698 -0.023,-64.378198 0.011,-17.4336 0.021,-34.868 -10e-4,-52.3051 0.309,-3.6977999 -2.471,-6.4970899 -4.997,-8.1130398 l -0.06,-0.03821 -0.065,-0.02939 c -1.801,-0.8207 -3.63,-0.80265 -5.332,-0.54428 -0.849,0.12889 -1.69,0.3216 -2.49,0.51039 -0.09,0.02116 -0.179,0.04225 -0.267,0.06322 -0.714,0.16892 -1.391,0.3292499 -2.057,0.4497599 z m -17.755,118.3158479 0.013,-0.005 0.012,-0.006 c 3.425,-1.535 7.397,-1.038 10.617,0.848 3.22,1.886 5.569,5.087 5.849,8.812 l 0.004,0.061 0.012,0.059 c 0.734,3.704 -0.698,7.428 -3.329,10.097 -2.633,2.67 -6.371,4.187 -10.115,3.583 l -0.031,-0.005 -0.032,-0.003 c -6.864,-0.667 -12.056,-7.957 -10.434,-14.613 l 0.004,-0.017 0.004,-0.017 c 0.806,-3.896 3.719,-7.253 7.426,-8.794 z m -99.912497,14.139 0.0078,-0.003 0.0077,-0.002 c 8.1305,-2.812 18.1706,1.755 20.7567,9.934 0.5722,3.974 0.4963,8.085 0.1053,12.141 -2.7125,7.874 -12.1148,12.529 -20.159,10.109 l -0.0174,-0.006 -0.0175,-0.004 c -8.1314,-2.129 -13.6983,-11.01 -11.9801,-19.208 l 0.0028,-0.014 0.0025,-0.013 c 1.0713,-5.919 5.5578,-11.057 11.2912,-12.934 z"
     fill="url(#paint0_linear)"
     stroke="url(#paint1_linear)"
     stroke-width="2"
     id="path1"
     style="fill:url(#paint0_linear);stroke:url(#paint1_linear);stroke-width:0;stroke-dasharray:none" />
  <defs
     id="defs4">
    <linearGradient
       id="paint0_linear"
       x1="157.31389"
       y1="168.05057"
       x2="27.749496"
       y2="38.486176"
       gradientUnits="userSpaceOnUse"
       gradientTransform="translate(-14.999117,-4.9999979)">
      <stop
         stop-color="#0357D1"
         id="stop1"
         offset="0"
         style="stop-color:#2950ff;stop-opacity:1;" />
      <stop
         offset="1"
         stop-color="#27CDFC"
         id="stop2"
         style="stop-color:#4fe5ff;stop-opacity:1;" />
    </linearGradient>
    <linearGradient
       id="paint1_linear"
       x1="157.31389"
       y1="168.05057"
       x2="27.749496"
       y2="38.486176"
       gradientUnits="userSpaceOnUse"
       gradientTransform="translate(-14.999117,-4.9999979)">
      <stop
         stop-color="#0357D1"
         id="stop3" />
      <stop
         offset="1"
         stop-color="#27CDFC"
         id="stop4" />
    </linearGradient>
  </defs>
</svg>
